# xmcd
#
# Track frame offsets:
#	150
#	11801
#	26389
#	39195
#	53256
#	66901
#	84393
#	94827
#	110725
#	123512
#	142212
#	154465
#
# Disc length: 2235 seconds
#
# Revision: 1
# Processed by: cddbd v1.5.2PL0 Copyright (c) Steve Scherf et al.
# Submitted via: audiograbber 1.82.02
#
DISCID=9d08b90c
DTITLE=Slim Dusty - Aussie Sing Song CD 1
DYEAR=1996
DGENRE=Country
TTITLE0=I'm Going Back Again To Yarrawonga
TTITLE1=Click Go The Shears
TTITLE2=The Pub With No Beer
TTITLE3=Goodbye Melbourne Town
TTITLE4=Oh, Sydney I Love You;
TTITLE5=The Bells Of St. Mary's
TTITLE6=Boomerang
TTITLE7=Keep The Homefires Burning;
TTITLE8=The Answer To The Pub With No Beer
TTITLE9=The Whispering Bush
TTITLE10=Bless This House
TTITLE11=The Old Sundowner
EXTD=
EXTT0=
EXTT1=
EXTT2=
EXTT3=
EXTT4=
EXTT5=
EXTT6=
EXTT7=
EXTT8=
EXTT9=
EXTT10=
EXTT11=
PLAYORDER=
